<?xml version="1.0" encoding="UTF-8" standalone="no"?>
<!DOCTYPE svg PUBLIC "-//W3C//DTD SVG 1.1//EN" "http://www.w3.org/Graphics/SVG/1.1/DTD/svg11.dtd">
<svg width="100%" height="100%" viewBox="0 0 16 16" version="1.1" xmlns="http://www.w3.org/2000/svg" xmlns:xlink="http://www.w3.org/1999/xlink" xml:space="preserve" xmlns:serif="http://www.serif.com/" style="fill-rule:evenodd;clip-rule:evenodd;stroke-linejoin:round;stroke-miterlimit:2;">
    <path d="M8.211,2.047C8.077,1.985 7.923,1.985 7.789,2.047L0.289,5.547C0.113,5.629 0,5.806 0,6C0,6.204 0.125,6.388 0.314,6.464L7.814,9.464C7.933,9.512 8.067,9.512 8.186,9.464L14,7.14L14,13C13.451,13 13,13.451 13,14L13,16L16,16L16,14C16,13.451 15.549,13 15,13L15,6.739L15.686,6.464C15.875,6.388 16,6.204 16,6C16,5.806 15.887,5.629 15.711,5.547L8.211,2.047ZM8,8.46L1.758,5.965L8,3.052L14.242,5.965L8,8.46Z" style="fill:rgb(130,0,82);fill-rule:nonzero;"/>
    <path d="M4.176,9.032C4.12,9.011 4.06,9 4,9C3.779,9 3.582,9.147 3.52,9.359L3.02,11.059C2.948,11.305 3.076,11.569 3.314,11.664L7.814,13.464C7.933,13.512 8.067,13.512 8.186,13.464L12.686,11.664C12.924,11.569 13.052,11.305 12.98,11.059L12.48,9.359C12.418,9.147 12.221,9 12,9C11.94,9 11.88,9.011 11.824,9.032L8,10.466L4.176,9.032ZM4.108,10.905L4.328,10.157L7.824,11.468C7.937,11.511 8.063,11.511 8.176,11.468L11.672,10.157L11.892,10.905L8,12.46L4.108,10.905Z" style="fill:rgb(130,0,82);fill-rule:nonzero;"/>
</svg>
